<svg xmlns="http://www.w3.org/2000/svg">
  <symbol id="spotify" viewBox="0 0 24 24">
    <path
      fill="currentColor"
      d="m12 24c6.624 0 12-5.376 12-12s-5.376-12-12-12-12 5.376-12 12 5.376 12 12 12zm4.872-6.344v.001c-.807 0-3.356-2.828-10.52-1.36-.189.049-.436.126-.576.126-.915 0-1.09-1.369-.106-1.578 3.963-.875 8.013-.798 11.467 1.268.824.526.474 1.543-.265 1.543zm1.303-3.173c-.113-.03-.08.069-.597-.203-3.025-1.79-7.533-2.512-11.545-1.423-.232.063-.358.126-.576.126-1.071 0-1.355-1.611-.188-1.94 4.716-1.325 9.775-.552 13.297 1.543.392.232.547.533.547.953-.005.522-.411.944-.938.944zm-13.627-7.485c4.523-1.324 11.368-.906 15.624 1.578 1.091.629.662 2.22-.498 2.22l-.001-.001c-.252 0-.407-.063-.625-.189-3.443-2.056-9.604-2.549-13.59-1.436-.175.048-.393.125-.625.125-.639 0-1.127-.499-1.127-1.142 0-.657.407-1.029.842-1.155z"
    />
  </symbol>

  <symbol id="music" viewBox="0 0 512 512">
    <path
      fill="currentColor"
      d="M407,0H105C47.103,0,0,47.103,0,105v302c0,57.897,47.103,105,105,105h302c57.897,0,105-47.103,105-105V105
			C512,47.103,464.897,0,407,0z M482,407c0,41.355-33.645,75-75,75H105c-41.355,0-75-33.645-75-75V105c0-41.355,33.645-75,75-75h302
			c41.355,0,75,33.645,75,75V407z"
    />
    <path
      fill="currentColor"
      d="M179,118.364V346h-35c-22.056,0-40,17.944-40,40c0,22.056,17.944,40,40,40h25c22.056,0,40-17.944,40-40V213.635
			l144-24.828V316h-35c-22.056,0-40,17.944-40,40c0,22.056,17.944,40,40,40h25c22.056,0,40-17.944,40-40V83.192L179,118.364z
			 M179,386c0,5.514-4.486,10-10,10h-25c-5.514,0-10-4.486-10-10c0-5.514,4.486-10,10-10h35V386z M353,356c0,5.514-4.486,10-10,10
			h-25c-5.514,0-10-4.486-10-10c0-5.514,4.486-10,10-10h35V356z M353,158.365l-144,24.828v-39.557l144-24.828V158.365z"
    />
  </symbol>
</svg>
